PathFileType	4	(X/Y/Z)	/Users/itak/Documents/Research/Walk-IL/dataset/trc/00463_00167.trc
DataRate	CameraRate	NumFrames	NumMarkers	Units	OrigDataRate	OrigDataStartFrame	OrigNumFrames
100.000000	100.000000	4	53	mm	100.000000	289	579
Frame#	Time	RPSI			LPSI			L3			STRN			T10			C7			CLAV			RBAK			LBAK			LSHO			LUPA			LAEL			LAOL			LWTS			LWPS			LFRA			LIFD			LHPS			LHTS			RSHO			RUPA			RAEL			RAOL			RWTS			RWPS			RFRA			RIFD			RHTS			RHPS			RBHD			LFHD			RFHD			LBHD			LHIP			RHIP			RASI			LASI			LKNE			LTHI			LANK			LTIP			LTOE			LMT1			LMT5			LHEE			RKNE			RTHI			RANK			RTIP			RTOE			RMT1			RMT5			RHEE			
		X1	Y1	Z1	X2	Y2	Z2	X3	Y3	Z3	X4	Y4	Z4	X5	Y5	Z5	X6	Y6	Z6	X7	Y7	Z7	X8	Y8	Z8	X9	Y9	Z9	X10	Y10	Z10	X11	Y11	Z11	X12	Y12	Z12	X13	Y13	Z13	X14	Y14	Z14	X15	Y15	Z15	X16	Y16	Z16	X17	Y17	Z17	X18	Y18	Z18	X19	Y19	Z19	X20	Y20	Z20	X21	Y21	Z21	X22	Y22	Z22	X23	Y23	Z23	X24	Y24	Z24	X25	Y25	Z25	X26	Y26	Z26	X27	Y27	Z27	X28	Y28	Z28	X29	Y29	Z29	X30	Y30	Z30	X31	Y31	Z31	X32	Y32	Z32	X33	Y33	Z33	X34	Y34	Z34	X35	Y35	Z35	X36	Y36	Z36	X37	Y37	Z37	X38	Y38	Z38	X39	Y39	Z39	X40	Y40	Z40	X41	Y41	Z41	X42	Y42	Z42	X43	Y43	Z43	X44	Y44	Z44	X45	Y45	Z45	X46	Y46	Z46	X47	Y47	Z47	X48	Y48	Z48	X49	Y49	Z49	X50	Y50	Z50	X51	Y51	Z51	X52	Y52	Z52	X53	Y53	Z53	

290	2.89	-280.2226257324219	920.8447265625	-762.835205078125	-208.2921447753906	935.0938110351562	-887.2276000976562	-236.980712890625	1031.474365234375	-799.1434936523438	10.89600658416748	1224.4814453125	-662.8997192382812	-248.0716094970703	1156.725952148438	-802.00146484375	-191.1716613769531	1421.732666015625	-744.616455078125	-20.5714111328125	1338.621459960938	-676.4501342773438	-290.1089477539062	1299.919189453125	-698.4737548828125	-171.7865295410156	1379.249145507812	-848.9569091796875	-44.60523223876953	1406.65869140625	-873.9567260742188	-6.784323692321777	1295.950927734375	-974.4150390625	15.96394443511963	1077.968505859375	-1008.448303222656	-84.75794219970703	1068.233520507812	-991.0670166015625	63.64597320556641	869.9381103515625	-954.4990234375	32.11489486694336	864.6649169921875	-1021.985778808594	33.90236663818359	989.4002075195312	-1013.122741699219	71.26971435546875	705.166259765625	-1002.217895507812	40.2319221496582	792.287353515625	-1036.83642578125	82.69610595703125	785.4926147460938	-979.1679077148438	-206.7817840576172	1385.731323242188	-573.7741088867188	-262.727783203125	1324.822265625	-521.7938232421875	-321.3529052734375	1046.437744140625	-485.5546264648438	-343.2171936035156	1036.265991210938	-549.0684814453125	-252.8370666503906	824.21875	-471.7478637695312	-341.267333984375	828.206298828125	-469.6940307617188	-333.7479248046875	988.9571533203125	-478.1051940917969	-294.3218078613281	671.9664916992188	-468.7531127929688	-272.5935974121094	726.6990356445312	-455.1315307617188	-347.4757080078125	741.3123168945312	-463.5243530273438	-181.2962036132812	1609.369995117188	-639.1866455078125	23.04270553588867	1637.682495117188	-649.169189453125	-71.07577514648438	1626.824951171875	-558.6707153320312	-65.74999237060547	1628.27880859375	-773.0253295898438	-19.21161842346191	850.819580078125	-922.876953125	-231.9857940673828	808.7001342773438	-585.153076171875	-118.6057357788086	865.0192260742188	-590.7425537109375	15.40549087524414	887.6954345703125	-804.8939208984375	101.9063186645508	450.3683166503906	-863.0905151367188	85.86658477783203	603.8905639648438	-880.7789916992188	45.41044998168945	40.71686172485352	-952.4199829101562	108.1593246459961	297.3666381835938	-894.5823364257812	191.4837341308594	41.407958984375	-756.4386596679688	113.8444747924805	49.18099594116211	-779.1094970703125	179.4426879882812	38.45796585083008	-876.4445190429688	-29.68833923339844	44.02401733398438	-923.8263549804688	-122.4856948852539	441.2210083007812	-584.0127563476562	-163.8299865722656	682.779296875	-561.2310180664062	-457.7296447753906	215.9263763427734	-716.7239379882812	-218.0692901611328	340.0276489257812	-614.9502563476562	-330.6553039550781	41.71732330322266	-716.8868408203125	-349.485107421875	92.11839294433594	-762.5562133789062	-390.1897583007812	114.1406097412109	-668.2272338867188	-482.8839416503906	261.9330139160156	-775.6365966796875	
291	2.9	-273.53564453125	923.134033203125	-765.220947265625	-199.4263916015625	937.4973754882812	-888.2628784179688	-228.9812622070312	1033.7900390625	-801.374267578125	16.49126625061035	1225.61279296875	-659.32080078125	-239.0095977783203	1159.190307617188	-804.5850219726562	-182.3505859375	1423.949096679688	-745.9215698242188	-14.03930282592773	1339.885986328125	-673.5569458007812	-282.9386596679688	1302.5654296875	-702.1360473632812	-160.4660339355469	1381.443359375	-849.7808227539062	-32.62553787231445	1408.325073242188	-871.2335205078125	7.995944023132324	1298.280517578125	-971.17041015625	32.27001953125	1080.775024414062	-1006.419006347656	-69.23591613769531	1070.710693359375	-992.6082153320312	78.40956878662109	872.5263671875	-951.9495239257812	49.81623840332031	867.3915405273438	-1020.797912597656	50.5440559387207	992.265869140625	-1011.081420898438	88.38607788085938	707.7178344726562	-998.8794555664062	58.74520874023438	794.9542846679688	-1035.436401367188	98.82969665527344	788.2855224609375	-975.8596801757812	-202.3143920898438	1388.011596679688	-575.4109497070312	-259.7442626953125	1327.276000976562	-524.8800048828125	-319.8221435546875	1048.869384765625	-490.1600646972656	-340.5953063964844	1039.11083984375	-554.104736328125	-251.8872375488281	825.8095092773438	-477.5427551269531	-340.2745666503906	830.1455078125	-475.4579162597656	-332.4667663574219	991.3929443359375	-483.1842651367188	-294.1261596679688	673.63720703125	-478.851318359375	-272.0834350585938	727.8690795898438	-463.7901000976562	-346.8883361816406	743.0770874023438	-471.6782836914062	-174.0135650634766	1611.451904296875	-639.6778564453125	30.58444023132324	1639.1357421875	-646.5444946289062	-65.00090789794922	1628.550048828125	-557.5292358398438	-56.38092422485352	1630.00439453125	-771.7239379882812	-10.62518501281738	852.1234741210938	-920.6311645507812	-228.6471405029297	811.2322387695312	-586.3151245117188	-115.4707489013672	867.6857299804688	-589.8999633789062	22.44877433776855	888.4026489257812	-801.7706909179688	104.506721496582	449.8717346191406	-861.8017578125	90.61212921142578	603.884033203125	-878.46240234375	45.42125701904297	40.90457916259766	-952.24755859375	109.778564453125	296.9184875488281	-893.5928955078125	191.4810333251953	41.32416915893555	-756.1943359375	113.7753753662109	49.04945755004883	-778.89990234375	179.3709411621094	38.46504211425781	-876.3308715820312	-29.67866516113281	44.12326431274414	-923.695068359375	-111.8264389038086	446.2356872558594	-580.0335083007812	-159.4330596923828	686.1030883789062	-559.8311767578125	-441.6433410644531	224.1436309814453	-726.4957275390625	-206.1295776367188	346.366943359375	-614.509765625	-317.6720886230469	45.73123931884766	-713.72509765625	-332.0239868164062	96.8173828125	-762.816650390625	-378.2544860839844	122.7032699584961	-671.555908203125	-463.5019226074219	268.4940185546875	-787.8462524414062	
292	2.91	-266.977783203125	925.5155029296875	-767.293212890625	-190.8501129150391	939.69921875	-889.0236206054688	-221.1934356689453	1036.135986328125	-803.4069213867188	21.80751419067383	1226.77734375	-655.6402587890625	-230.0255279541016	1161.6533203125	-807.0419921875	-173.6562652587891	1426.145629882812	-747.0941772460938	-7.782267570495605	1341.168090820312	-670.5518798828125	-275.8633117675781	1305.218872070312	-705.7876586914062	-149.2639312744141	1383.637084960938	-850.4246215820312	-20.85259437561035	1409.948608398438	-868.2744140625	22.48933601379395	1300.538208007812	-967.5901489257812	48.36630630493164	1083.59912109375	-1004.057373046875	-53.76449203491211	1073.114624023438	-993.637451171875	93.29046630859375	875.1964111328125	-949.3062133789062	67.43246459960938	870.1049194335938	-1019.262634277344	67.0447998046875	995.1690063476562	-1008.75439453125	105.5174560546875	710.3082885742188	-995.0864868164062	77.15040588378906	797.5274047851562	-1033.528442382812	115.0368347167969	791.1773681640625	-972.34619140625	-198.0752258300781	1390.281005859375	-577.0673828125	-257.0033874511719	1329.734741210938	-528.0830688476562	-318.5297241210938	1051.287109375	-494.8612976074219	-338.1141662597656	1041.835327148438	-559.2369995117188	-250.5567626953125	827.594970703125	-483.3212280273438	-338.9286804199219	832.0344848632812	-481.0118103027344	-331.2879333496094	993.8040161132812	-488.3054809570312	-293.0144958496094	675.4817504882812	-488.8287658691406	-270.8303527832031	729.2655029296875	-472.38232421875	-345.618896484375	744.8019409179688	-479.5752258300781	-166.9194793701172	1613.488037109375	-640.0289306640625	37.87552261352539	1640.59619140625	-643.8068237304688	-59.11977005004883	1630.285278320312	-556.28076171875	-47.24171829223633	1631.684326171875	-770.2688598632812	-2.349090337753296	853.3277587890625	-918.264404296875	-225.3797760009766	814.0772705078125	-587.1697387695312	-112.3725051879883	870.5475463867188	-589.1085815429688	29.33932304382324	889.229248046875	-798.6587524414062	106.9484024047852	449.4391174316406	-860.53173828125	95.15727996826172	603.9202880859375	-876.1364135742188	45.44544219970703	41.10902404785156	-952.0874633789062	111.2831649780273	296.5407104492188	-892.6370239257812	191.4845428466797	41.23531723022461	-755.9821166992188	113.728385925293	48.94510269165039	-778.7225341796875	179.3172607421875	38.44851303100586	-876.2304077148438	-29.64756011962891	44.24336624145508	-923.5828857421875	-101.9022750854492	451.2662353515625	-575.92822265625	-155.4333038330078	689.6044311523438	-558.2291870117188	-424.7616271972656	230.3214263916016	-735.6769409179688	-194.3287200927734	352.1582336425781	-613.9210205078125	-302.3098754882812	50.21536636352539	-712.3211059570312	-313.2463989257812	101.2601089477539	-763.998291015625	-364.6111450195312	129.5576019287109	-675.6954345703125	-443.8275146484375	273.2762756347656	-798.9086303710938	
293	2.92	-260.551513671875	927.9065551757812	-769.0563354492188	-182.5253753662109	941.7017822265625	-889.5100708007812	-213.5831451416016	1038.470336914062	-805.2283325195312	26.89139747619629	1227.974365234375	-651.904052734375	-221.1300659179688	1164.066040039062	-809.3544921875	-165.0956268310547	1428.284790039062	-748.130615234375	-1.775257229804993	1342.466918945312	-667.4724731445312	-268.8514099121094	1307.842651367188	-709.413818359375	-138.2047576904297	1385.783081054688	-850.8853149414062	-9.326038360595703	1411.532348632812	-865.124267578125	36.66402435302734	1302.725219726562	-963.7074584960938	64.23988342285156	1086.42431640625	-1001.341125488281	-38.33624267578125	1075.4345703125	-994.1160278320312	108.2687225341797	877.9219360351562	-946.5205078125	84.93148040771484	872.8237915039062	-1017.37060546875	83.39238739013672	998.099609375	-1006.111938476562	122.5869140625	712.94580078125	-990.9584350585938	95.41623687744141	800.0498657226562	-1031.171020507812	131.2685852050781	794.1303100585938	-968.6531372070312	-194.0278167724609	1392.521240234375	-578.756103515625	-254.4528503417969	1332.19580078125	-531.39892578125	-317.4504699707031	1053.678955078125	-499.6650390625	-335.7447204589844	1044.432250976562	-564.478759765625	-248.9020080566406	829.570556640625	-489.0037231445312	-337.2896423339844	833.8707885742188	-486.3921813964844	-330.2009582519531	996.182861328125	-493.4787292480469	-291.0316772460938	677.4901733398438	-498.5208129882812	-268.9019775390625	730.8944091796875	-480.7566833496094	-343.7323608398438	746.4775390625	-487.1941528320312	-160.0105895996094	1615.454711914062	-640.244873046875	44.91846466064453	1642.038940429688	-640.9576416015625	-53.43183898925781	1632.006103515625	-554.9269409179688	-38.33278656005859	1633.298583984375	-768.663818359375	5.652639389038086	854.4376220703125	-915.8133544921875	-222.1029357910156	817.1397705078125	-587.71044921875	-109.2426681518555	873.5324096679688	-588.4088745117188	36.13943099975586	890.1637573242188	-795.6029663085938	109.2134475708008	449.0582885742188	-859.3203735351562	99.50303649902344	603.959228515625	-873.8323974609375	45.46997833251953	41.31525039672852	-951.9409790039062	112.6582260131836	296.2277221679688	-891.7572021484375	191.4867706298828	41.1448974609375	-755.801025390625	113.6968307495117	48.86337280273438	-778.5746459960938	179.2787170410156	38.41811752319336	-876.1375122070312	-29.60287666320801	44.37819671630859	-923.488037109375	-92.62085723876953	456.1392517089844	-571.641357421875	-151.6769561767578	693.225341796875	-556.4081420898438	-407.2043762207031	234.3616943359375	-744.0914306640625	-182.6241455078125	357.1667785644531	-613.0841064453125	-284.5195617675781	54.69236373901367	-712.885986328125	-293.224365234375	105.3124923706055	-766.2335815429688	-349.2514343261719	134.3368377685547	-680.625732421875	-424.0078735351562	276.3797302246094	-808.6067504882812	
